<?xml version="1.0" encoding="UTF-8"?>
<svg xmlns="http://www.w3.org/2000/svg" xmlns:xlink="http://www.w3.org/1999/xlink" width="22.5pt" height="22.5pt"
    viewBox="0 0 22.5 22.5" version="1.1">
    <g id="surface23424">
        <path style=" stroke:none;fill-rule:nonzero;fill:rgb(97.254902%,44.313726%,44.313726%);fill-opacity:1;"
            d="M 9.535156 1.464844 C 9.128906 1.464844 8.800781 1.796875 8.800781 2.199219 C 8.800781 5.910156 3.667969 8.800781 3.667969 13.933594 C 3.667969 17.832031 7.894531 20.355469 9.382812 20.519531 C 9.429688 20.527344 9.480469 20.535156 9.535156 20.535156 C 9.9375 20.535156 10.265625 20.203125 10.265625 19.800781 C 10.265625 19.578125 10.167969 19.371094 9.996094 19.230469 C 9.328125 18.6875 8.066406 17.117188 8.066406 15.683594 C 8.066406 13.332031 10.265625 12.464844 10.265625 12.464844 C 9.011719 16.015625 13.125 16.445312 13.949219 19.960938 L 13.953125 19.960938 C 14.027344 20.292969 14.324219 20.53125 14.667969 20.535156 C 14.820312 20.53125 14.972656 20.484375 15.097656 20.394531 C 15.109375 20.382812 15.121094 20.375 15.136719 20.363281 C 15.253906 20.285156 18.332031 18.25 18.332031 13.933594 C 18.332031 12.171875 17.453125 9.144531 16.816406 7.804688 C 16.816406 7.804688 16.816406 7.800781 16.816406 7.800781 C 16.816406 7.800781 16.816406 7.796875 16.816406 7.796875 C 16.703125 7.515625 16.433594 7.332031 16.132812 7.332031 C 15.78125 7.332031 15.476562 7.585938 15.414062 7.933594 C 15.414062 7.933594 15.414062 7.933594 15.414062 7.9375 C 15.410156 7.945312 15.074219 9.441406 13.933594 10.265625 C 13.933594 6.8125 11.4375 3.242188 10.125 1.765625 C 10.105469 1.738281 10.082031 1.714844 10.058594 1.691406 C 9.921875 1.546875 9.730469 1.46875 9.535156 1.464844 Z M 9.535156 1.464844 " />
    </g>
</svg>